<?xml version="1.0" encoding="UTF-8" standalone="no"?>
<svg width="800" height="500" viewBox="0 0 800 500" xmlns="http://www.w3.org/2000/svg">
  <style>
    .dashboard-bg { fill: #f7fafc; }
    .widget { fill: white; stroke: #e2e8f0; stroke-width: 2; }
    .header { fill: #4c51bf; }
    .sidebar { fill: white; stroke: #e2e8f0; stroke-width: 2; }
    .nav-item { fill: #f7fafc; }
    .active-nav { fill: #4c51bf; }
    .text-block { fill: #e2e8f0; }
    .card-title { fill: #2d3748; }
    .card { fill: white; stroke: #e2e8f0; stroke-width: 2; }
    .table-header { fill: #ebf4ff; }
    .chart-bar { fill: #4c51bf; }
    .chart-bar-alt { fill: #6b46c1; }
    .chart-bar-low { fill: #e53e3e; }
    .chart-line { stroke: #4c51bf; stroke-width: 3; fill: none; }
  </style>
  
  <!-- Dashboard Background -->
  <rect class="dashboard-bg" x="0" y="0" width="800" height="500" rx="8" />
  
  <!-- Sidebar -->
  <rect class="sidebar" x="10" y="10" width="180" height="480" rx="8" />
  
  <!-- Logo Area -->
  <rect class="header" x="20" y="20" width="160" height="50" rx="4" />
  
  <!-- Navigation Items -->
  <rect class="active-nav" x="20" y="90" width="160" height="40" rx="4" />
  <rect class="nav-item" x="20" y="140" width="160" height="40" rx="4" />
  <rect class="nav-item" x="20" y="190" width="160" height="40" rx="4" />
  <rect class="nav-item" x="20" y="240" width="160" height="40" rx="4" />
  <rect class="nav-item" x="20" y="290" width="160" height="40" rx="4" />
  
  <!-- Main Content Area -->
  <!-- Header -->
  <rect class="card-title" x="210" y="20" width="280" height="30" rx="4" />
  <rect class="text-block" x="210" y="60" width="450" height="20" rx="4" />
  
  <!-- Stats Cards -->
  <rect class="card" x="210" y="100" width="180" height="100" rx="8" />
  <rect class="card" x="410" y="100" width="180" height="100" rx="8" />
  <rect class="card" x="610" y="100" width="180" height="100" rx="8" />
  
  <!-- Stats Content -->
  <rect class="card-title" x="225" y="115" width="120" height="20" rx="4" />
  <text x="225" y="160" font-family="Inter, sans-serif" font-size="28" font-weight="bold" fill="#4c51bf">42</text>
  <rect class="text-block" x="225" y="170" width="80" height="15" rx="4" />
  
  <rect class="card-title" x="425" y="115" width="120" height="20" rx="4" />
  <text x="425" y="160" font-family="Inter, sans-serif" font-size="28" font-weight="bold" fill="#4c51bf">8</text>
  <rect class="text-block" x="425" y="170" width="80" height="15" rx="4" />
  
  <rect class="card-title" x="625" y="115" width="120" height="20" rx="4" />
  <text x="625" y="160" font-family="Inter, sans-serif" font-size="28" font-weight="bold" fill="#4c51bf">92%</text>
  <rect class="text-block" x="625" y="170" width="80" height="15" rx="4" />
  
  <!-- Analytics Chart -->
  <rect class="card" x="210" y="220" width="350" height="260" rx="8" />
  <rect class="card-title" x="230" y="240" width="180" height="20" rx="4" />
  
  <!-- Chart Visualization -->
  <rect class="dashboard-bg" x="230" y="270" width="310" height="180" rx="4" />
  
  <!-- Chart Bars -->
  <rect class="chart-bar" x="250" y="350" width="15" height="100" rx="2" />
  <rect class="chart-bar" x="280" y="320" width="15" height="130" rx="2" />
  <rect class="chart-bar" x="310" y="300" width="15" height="150" rx="2" />
  <rect class="chart-bar" x="340" y="330" width="15" height="120" rx="2" />
  <rect class="chart-bar" x="370" y="290" width="15" height="160" rx="2" />
  <rect class="chart-bar" x="400" y="310" width="15" height="140" rx="2" />
  <rect class="chart-bar" x="430" y="280" width="15" height="170" rx="2" />
  <rect class="chart-bar" x="460" y="320" width="15" height="130" rx="2" />
  <rect class="chart-bar" x="490" y="270" width="15" height="180" rx="2" />
  <rect class="chart-bar" x="520" y="300" width="15" height="150" rx="2" />
  
  <!-- Line Overlay -->
  <polyline class="chart-line" points="257,330 287,305 317,280 347,315 377,270 407,290 437,260 467,300 497,250 527,275" />
  
  <!-- Student/Tutor List -->
  <rect class="card" x="580" y="220" width="210" height="260" rx="8" />
  <rect class="card-title" x="600" y="240" width="140" height="20" rx="4" />
  
  <!-- Table Header -->
  <rect class="table-header" x="600" y="270" width="170" height="25" rx="4" />
  
  <!-- Table Rows -->
  <rect class="text-block" x="600" y="305" width="170" height="15" rx="4" />
  <rect class="text-block" x="600" y="330" width="170" height="15" rx="4" />
  <rect class="text-block" x="600" y="355" width="170" height="15" rx="4" />
  <rect class="text-block" x="600" y="380" width="170" height="15" rx="4" />
  <rect class="text-block" x="600" y="405" width="170" height="15" rx="4" />
  <rect class="text-block" x="600" y="430" width="170" height="15" rx="4" />
  <rect class="text-block" x="600" y="455" width="170" height="15" rx="4" />
</svg> 