<?xml version="1.0" encoding="UTF-8" standalone="no"?>
<svg width="800" height="500" viewBox="0 0 800 500" xmlns="http://www.w3.org/2000/svg">
  <style>
    .dashboard-bg { fill: #f7fafc; }
    .widget { fill: white; stroke: #e2e8f0; stroke-width: 2; }
    .header { fill: #4c51bf; }
    .sidebar { fill: white; stroke: #e2e8f0; stroke-width: 2; }
    .nav-item { fill: #f7fafc; }
    .chart { fill: #e2e8f0; }
    .chart-line { stroke: #4c51bf; stroke-width: 3; fill: none; }
    .chart-bar { fill: #4c51bf; }
    .chart-bar-alt { fill: #6b46c1; }
    .text-block { fill: #e2e8f0; }
    .card-title { fill: #2d3748; }
  </style>
  
  <!-- Dashboard Background -->
  <rect class="dashboard-bg" x="0" y="0" width="800" height="500" rx="8" />
  
  <!-- Sidebar -->
  <rect class="sidebar" x="10" y="10" width="180" height="480" rx="8" />
  
  <!-- Logo Area -->
  <rect class="header" x="20" y="20" width="160" height="50" rx="4" />
  
  <!-- Navigation Items -->
  <rect class="nav-item" x="20" y="90" width="160" height="40" rx="4" />
  <rect class="nav-item" x="20" y="140" width="160" height="40" rx="4" />
  <rect class="nav-item" x="20" y="190" width="160" height="40" rx="4" />
  <rect class="nav-item" x="20" y="240" width="160" height="40" rx="4" />
  <rect class="nav-item" x="20" y="290" width="160" height="40" rx="4" />
  
  <!-- Main Content Area -->
  <!-- Header -->
  <rect class="card-title" x="210" y="20" width="200" height="30" rx="4" />
  <rect class="text-block" x="210" y="60" width="350" height="20" rx="4" />
  
  <!-- Top Widgets -->
  <rect class="widget" x="210" y="100" width="180" height="100" rx="8" />
  <rect class="widget" x="410" y="100" width="180" height="100" rx="8" />
  <rect class="widget" x="610" y="100" width="180" height="100" rx="8" />
  
  <!-- Widget titles -->
  <rect class="card-title" x="225" y="115" width="100" height="20" rx="4" />
  <rect class="card-title" x="425" y="115" width="100" height="20" rx="4" />
  <rect class="card-title" x="625" y="115" width="100" height="20" rx="4" />
  
  <!-- Widget content -->
  <rect class="text-block" x="225" y="145" width="150" height="40" rx="4" />
  <rect class="text-block" x="425" y="145" width="150" height="40" rx="4" />
  <rect class="text-block" x="625" y="145" width="150" height="40" rx="4" />
  
  <!-- Chart Widget -->
  <rect class="widget" x="210" y="220" width="580" height="250" rx="8" />
  <rect class="card-title" x="230" y="240" width="150" height="20" rx="4" />
  
  <!-- Chart -->
  <rect class="chart" x="230" y="270" width="540" height="180" rx="4" />
  
  <!-- Chart Lines & Bars -->
  <!-- Line Chart -->
  <polyline class="chart-line" points="230,400 290,350 350,370 410,310 470,330 530,290 590,320 650,270 710,290 770,250" />
  
  <!-- Bar Chart Elements -->
  <rect class="chart-bar" x="250" y="350" width="20" height="50" rx="2" />
  <rect class="chart-bar-alt" x="280" y="330" width="20" height="70" rx="2" />
  
  <rect class="chart-bar" x="330" y="370" width="20" height="30" rx="2" />
  <rect class="chart-bar-alt" x="360" y="350" width="20" height="50" rx="2" />
  
  <rect class="chart-bar" x="410" y="340" width="20" height="60" rx="2" />
  <rect class="chart-bar-alt" x="440" y="320" width="20" height="80" rx="2" />
  
  <rect class="chart-bar" x="490" y="360" width="20" height="40" rx="2" />
  <rect class="chart-bar-alt" x="520" y="330" width="20" height="70" rx="2" />
  
  <rect class="chart-bar" x="570" y="320" width="20" height="80" rx="2" />
  <rect class="chart-bar-alt" x="600" y="350" width="20" height="50" rx="2" />
  
  <rect class="chart-bar" x="650" y="330" width="20" height="70" rx="2" />
  <rect class="chart-bar-alt" x="680" y="310" width="20" height="90" rx="2" />
</svg> 