<?xml version="1.0" encoding="UTF-8" standalone="no"?>
<svg width="800" height="500" viewBox="0 0 800 500" xmlns="http://www.w3.org/2000/svg">
  <style>
    .dashboard-bg { fill: #f7fafc; }
    .widget { fill: white; stroke: #e2e8f0; stroke-width: 2; }
    .header { fill: #4c51bf; }
    .sidebar { fill: white; stroke: #e2e8f0; stroke-width: 2; }
    .nav-item { fill: #f7fafc; }
    .active-nav { fill: #4c51bf; }
    .text-block { fill: #e2e8f0; }
    .card-title { fill: #2d3748; }
    .progress-bg { fill: #e2e8f0; }
    .progress-fill { fill: #4c51bf; }
    .card { fill: white; stroke: #e2e8f0; stroke-width: 2; }
  </style>
  
  <!-- Dashboard Background -->
  <rect class="dashboard-bg" x="0" y="0" width="800" height="500" rx="8" />
  
  <!-- Sidebar -->
  <rect class="sidebar" x="10" y="10" width="180" height="480" rx="8" />
  
  <!-- Logo Area -->
  <rect class="header" x="20" y="20" width="160" height="50" rx="4" />
  
  <!-- Navigation Items -->
  <rect class="active-nav" x="20" y="90" width="160" height="40" rx="4" />
  <rect class="nav-item" x="20" y="140" width="160" height="40" rx="4" />
  <rect class="nav-item" x="20" y="190" width="160" height="40" rx="4" />
  <rect class="nav-item" x="20" y="240" width="160" height="40" rx="4" />
  <rect class="nav-item" x="20" y="290" width="160" height="40" rx="4" />
  
  <!-- Main Content Area -->
  <!-- Header -->
  <rect class="card-title" x="210" y="20" width="240" height="30" rx="4" />
  <rect class="text-block" x="210" y="60" width="500" height="20" rx="4" />
  <rect class="text-block" x="210" y="90" width="450" height="20" rx="4" />
  
  <!-- Upcoming Assignments Section -->
  <rect class="card-title" x="210" y="130" width="200" height="25" rx="4" />
  
  <!-- Assignment Cards -->
  <rect class="card" x="210" y="170" width="170" height="120" rx="8" />
  <rect class="card" x="400" y="170" width="170" height="120" rx="8" />
  <rect class="card" x="590" y="170" width="170" height="120" rx="8" />
  
  <!-- Card Content -->
  <rect class="card-title" x="225" y="185" width="120" height="20" rx="4" />
  <rect class="text-block" x="225" y="215" width="140" height="15" rx="4" />
  <rect class="text-block" x="225" y="240" width="80" height="15" rx="4" />
  <rect class="header" x="225" y="265" width="70" height="15" rx="4" />
  
  <rect class="card-title" x="415" y="185" width="120" height="20" rx="4" />
  <rect class="text-block" x="415" y="215" width="140" height="15" rx="4" />
  <rect class="text-block" x="415" y="240" width="80" height="15" rx="4" />
  <rect class="header" x="415" y="265" width="70" height="15" rx="4" />
  
  <rect class="card-title" x="605" y="185" width="120" height="20" rx="4" />
  <rect class="text-block" x="605" y="215" width="140" height="15" rx="4" />
  <rect class="text-block" x="605" y="240" width="80" height="15" rx="4" />
  <rect class="header" x="605" y="265" width="70" height="15" rx="4" />
  
  <!-- Progress Section -->
  <rect class="card-title" x="210" y="310" width="240" height="25" rx="4" />
  
  <!-- Progress Widgets -->
  <rect class="card" x="210" y="350" width="270" height="120" rx="8" />
  <rect class="card" x="500" y="350" width="270" height="120" rx="8" />
  
  <!-- Progress Content -->
  <rect class="card-title" x="225" y="365" width="120" height="20" rx="4" />
  <rect class="text-block" x="225" y="395" width="240" height="15" rx="4" />
  
  <!-- Progress Bars -->
  <rect class="progress-bg" x="225" y="425" width="240" height="15" rx="4" />
  <rect class="progress-fill" x="225" y="425" width="180" height="15" rx="4" />
  
  <rect class="card-title" x="515" y="365" width="120" height="20" rx="4" />
  <rect class="text-block" x="515" y="395" width="240" height="15" rx="4" />
  
  <rect class="progress-bg" x="515" y="425" width="240" height="15" rx="4" />
  <rect class="progress-fill" x="515" y="425" width="120" height="15" rx="4" />
</svg> 