<?xml version="1.0" encoding="UTF-8" standalone="no"?>
<svg width="800" height="500" viewBox="0 0 800 500" xmlns="http://www.w3.org/2000/svg">
  <style>
    .dashboard-bg { fill: #f7fafc; }
    .widget { fill: white; stroke: #e2e8f0; stroke-width: 2; }
    .header { fill: #4c51bf; }
    .sidebar { fill: white; stroke: #e2e8f0; stroke-width: 2; }
    .nav-item { fill: #f7fafc; }
    .active-nav { fill: #4c51bf; }
    .text-block { fill: #e2e8f0; }
    .card-title { fill: #2d3748; }
    .progress-bg { fill: #e2e8f0; }
    .progress-fill { fill: #4c51bf; }
    .card { fill: white; stroke: #e2e8f0; stroke-width: 2; }
    .student-card { fill: #f0f5ff; stroke: #c3dafe; stroke-width: 2; }
    .student-score { fill: #4c51bf; }
    .grid-bg { fill: #f7fafc; stroke: #e2e8f0; stroke-width: 1; }
    .grid-header { fill: #ebf4ff; }
  </style>
  
  <!-- Dashboard Background -->
  <rect class="dashboard-bg" x="0" y="0" width="800" height="500" rx="8" />
  
  <!-- Sidebar -->
  <rect class="sidebar" x="10" y="10" width="180" height="480" rx="8" />
  
  <!-- Logo Area -->
  <rect class="header" x="20" y="20" width="160" height="50" rx="4" />
  
  <!-- Navigation Items -->
  <rect class="active-nav" x="20" y="90" width="160" height="40" rx="4" />
  <rect class="nav-item" x="20" y="140" width="160" height="40" rx="4" />
  <rect class="nav-item" x="20" y="190" width="160" height="40" rx="4" />
  <rect class="nav-item" x="20" y="240" width="160" height="40" rx="4" />
  <rect class="nav-item" x="20" y="290" width="160" height="40" rx="4" />
  
  <!-- Main Content Area -->
  <!-- Header -->
  <rect class="card-title" x="210" y="20" width="240" height="30" rx="4" />
  <rect class="text-block" x="210" y="60" width="500" height="20" rx="4" />
  
  <!-- Feature Cards -->
  <rect class="card" x="210" y="100" width="180" height="140" rx="8" />
  <rect class="card" x="410" y="100" width="180" height="140" rx="8" />
  <rect class="card" x="610" y="100" width="180" height="140" rx="8" />
  
  <!-- Card Icons -->
  <circle class="header" cx="250" cy="135" r="25" />
  <circle class="header" cx="450" cy="135" r="25" />
  <circle class="header" cx="650" cy="135" r="25" />
  
  <!-- Card Content -->
  <rect class="card-title" x="230" y="170" width="140" height="20" rx="4" />
  <rect class="text-block" x="230" y="200" width="140" height="25" rx="4" />
  
  <rect class="card-title" x="430" y="170" width="140" height="20" rx="4" />
  <rect class="text-block" x="430" y="200" width="140" height="25" rx="4" />
  
  <rect class="card-title" x="630" y="170" width="140" height="20" rx="4" />
  <rect class="text-block" x="630" y="200" width="140" height="25" rx="4" />
  
  <!-- Recent Student Activity -->
  <rect class="card-title" x="210" y="260" width="290" height="25" rx="4" />
  
  <!-- Student Cards -->
  <rect class="student-card" x="210" y="300" width="280" height="80" rx="8" />
  <rect class="student-card" x="510" y="300" width="280" height="80" rx="8" />
  <rect class="student-card" x="210" y="400" width="280" height="80" rx="8" />
  <rect class="student-card" x="510" y="400" width="280" height="80" rx="8" />
  
  <!-- Student Card Content -->
  <rect class="card-title" x="225" y="315" width="100" height="20" rx="4" />
  <rect class="student-score" x="225" y="340" width="70" height="15" rx="4" />
  <rect class="text-block" x="305" y="340" width="100" height="15" rx="4" />
  <rect class="header" x="400" y="340" width="70" height="15" rx="4" />
  
  <rect class="card-title" x="525" y="315" width="100" height="20" rx="4" />
  <rect class="student-score" x="525" y="340" width="70" height="15" rx="4" />
  <rect class="text-block" x="605" y="340" width="100" height="15" rx="4" />
  <rect class="header" x="700" y="340" width="70" height="15" rx="4" />
  
  <rect class="card-title" x="225" y="415" width="100" height="20" rx="4" />
  <rect class="student-score" x="225" y="440" width="70" height="15" rx="4" />
  <rect class="text-block" x="305" y="440" width="100" height="15" rx="4" />
  <rect class="header" x="400" y="440" width="70" height="15" rx="4" />
  
  <rect class="card-title" x="525" y="415" width="100" height="20" rx="4" />
  <rect class="student-score" x="525" y="440" width="70" height="15" rx="4" />
  <rect class="text-block" x="605" y="440" width="100" height="15" rx="4" />
  <rect class="header" x="700" y="440" width="70" height="15" rx="4" />
</svg> 